<svg xmlns="http://www.w3.org/2000/svg" viewBox="0 0 538.17 339.88"><path d="M858.81,516.09H734.74c-3.81,0-6.91,3.44-6.91,7.69V661.67c0,4.25,3.1,7.69,6.91,7.69H858.81c3.82,0,6.91-3.44,6.91-7.69V523.78C865.72,519.53,862.63,516.09,858.81,516.09ZM837.36,630.15c0,4.24-3.1,7.68-6.92,7.68H763.11c-3.82,0-6.92-3.44-6.92-7.68V555.3c0-4.24,3.1-7.68,6.92-7.68h67.33c3.82,0,6.92,3.44,6.92,7.68Z" transform="translate(-327.56 -415.14)" fill="#fff"/><path d="M564.25,415.14H338c-5.74,0-10.39,4.26-10.39,9.51v21.12c0,5.25,4.65,9.51,10.39,9.51h91.21V660.36c0,5.25,4.65,9.51,10.39,9.51h23.09c5.74,0,10.4-4.26,10.4-9.51V455.28h91.21c5.74,0,10.39-4.26,10.39-9.51V424.65C574.64,419.4,570,415.14,564.25,415.14Z" transform="translate(-327.56 -415.14)" fill="#fff"/><path d="M704.38,516.09H497a7.23,7.23,0,0,0-7.23,7.24V662.12a7.23,7.23,0,0,0,7.23,7.24H704.38a7.24,7.24,0,0,0,7.23-7.24V523.33A7.24,7.24,0,0,0,704.38,516.09ZM683,630.72a7.06,7.06,0,0,1-7,7.06H525.37a7.06,7.06,0,0,1-7-7.06V554.47a7.06,7.06,0,0,1,7-7.06H676a7.06,7.06,0,0,1,7,7.06Z" transform="translate(-327.56 -415.14)" fill="#fff"/><path d="M427.94,753.84V684.68h29.43a34.42,34.42,0,0,1,14,2.57,19.27,19.27,0,0,1,8.63,7,18.17,18.17,0,0,1,0,19.57,19.17,19.17,0,0,1-8.69,7,35.36,35.36,0,0,1-14.3,2.57h-25.5v30.53Zm28.47-33.3a30.82,30.82,0,0,0,12.75-2.32,16.57,16.57,0,0,0,7.51-6.12,15.31,15.31,0,0,0,.06-16.3,16.5,16.5,0,0,0-7.39-6c-3.38-1.55-7.68-2.32-12.93-2.32h-24.9v33.09Z" transform="translate(-327.56 -415.14)" fill="#fff"/><path d="M502.16,753.84V684.68h3.58v69.16Z" transform="translate(-327.56 -415.14)" fill="#fff"/><path d="M534.45,753.84V684.68H538v66.39h46v2.77Z" transform="translate(-327.56 -415.14)" fill="#fff"/><path d="M590.44,753.84l31.69-69.16h4.77l31.93,69.16h-4.17l-26.57-58.79a19.16,19.16,0,0,1-1.55-4.34,18.82,18.82,0,0,1-.47-4.05H623a24.45,24.45,0,0,1-.6,4,23.65,23.65,0,0,1-1.55,4.44l-26.33,58.79ZM601.88,731l2.15-2.77h41.46l2,2.77Z" transform="translate(-327.56 -415.14)" fill="#fff"/><path d="M687.3,753.84V687.45H655.85v-2.77h68.62v2.77H690.88v66.39Z" transform="translate(-327.56 -415.14)" fill="#fff"/><path d="M740.68,753.84V684.68h54.56v2.77h-51V716.3h39.08v2.76H744.25v32h51v2.77Z" transform="translate(-327.56 -415.14)" fill="#fff"/><path d="M836.58,755a41.16,41.16,0,0,1-12.86-1.87,27.36,27.36,0,0,1-9.83-5.54,26.3,26.3,0,0,1-6.5-8.89l3.58-1.48a19.2,19.2,0,0,0,5.48,7.9,27,27,0,0,0,9,5.19,33.41,33.41,0,0,0,11.08,1.83q11.08,0,17.81-4.2t6.73-11.21a12.19,12.19,0,0,0-4.76-10q-4.77-3.81-13.46-6L830,717.58a44.42,44.42,0,0,1-9.59-3.41,19.62,19.62,0,0,1-6.85-5.48,12.61,12.61,0,0,1-2.62-8,13.75,13.75,0,0,1,3.39-9.34,20.79,20.79,0,0,1,9.18-5.88,39.16,39.16,0,0,1,12.68-2,36.39,36.39,0,0,1,13.94,2.37A26.27,26.27,0,0,1,859,691.4a21.69,21.69,0,0,1,4.41,6.12L860.17,699a23.38,23.38,0,0,0-4-5.54,22.7,22.7,0,0,0-7.74-5,30.9,30.9,0,0,0-12.22-2.18,34,34,0,0,0-11,1.68,17.72,17.72,0,0,0-7.81,4.94,11.21,11.21,0,0,0-2.86,7.61,10.57,10.57,0,0,0,4.53,8.84q4.53,3.4,14.3,5.88l11.55,2.86q9.54,2.38,14.78,6.92a15.54,15.54,0,0,1,1.84,21.34,21.55,21.55,0,0,1-9.77,6.42A45.2,45.2,0,0,1,836.58,755Z" transform="translate(-327.56 -415.14)" fill="#fff"/><path d="M858.81,516.09H734.74c-3.81,0-6.91,3.44-6.91,7.69V661.67c0,4.25,3.1,7.69,6.91,7.69H858.81c3.82,0,6.91-3.44,6.91-7.69V523.78C865.72,519.53,862.63,516.09,858.81,516.09ZM837.36,630.15c0,4.24-3.1,7.68-6.92,7.68H763.11c-3.82,0-6.92-3.44-6.92-7.68V555.3c0-4.24,3.1-7.68,6.92-7.68h67.33c3.82,0,6.92,3.44,6.92,7.68Z" transform="translate(-327.56 -415.14)" fill="#1d1d1b"/><path d="M564.25,415.14H338c-5.74,0-10.39,4.26-10.39,9.51v21.12c0,5.25,4.65,9.51,10.39,9.51h91.21V660.36c0,5.25,4.65,9.51,10.39,9.51h23.09c5.74,0,10.4-4.26,10.4-9.51V455.28h91.21c5.74,0,10.39-4.26,10.39-9.51V424.65C574.64,419.4,570,415.14,564.25,415.14Z" transform="translate(-327.56 -415.14)" fill="#1d1d1b"/><path d="M704.38,516.09H497a7.23,7.23,0,0,0-7.23,7.24V662.12a7.23,7.23,0,0,0,7.23,7.24H704.38a7.24,7.24,0,0,0,7.23-7.24V523.33A7.24,7.24,0,0,0,704.38,516.09ZM683,630.72a7.06,7.06,0,0,1-7,7.06H525.37a7.06,7.06,0,0,1-7-7.06V554.47a7.06,7.06,0,0,1,7-7.06H676a7.06,7.06,0,0,1,7,7.06Z" transform="translate(-327.56 -415.14)" fill="#1d1d1b"/><path d="M427.94,753.84V684.68h29.43a34.42,34.42,0,0,1,14,2.57,19.27,19.27,0,0,1,8.63,7,18.17,18.17,0,0,1,0,19.57,19.17,19.17,0,0,1-8.69,7,35.33,35.33,0,0,1-14.3,2.57h-25.5v30.53Zm28.48-33.3a30.8,30.8,0,0,0,12.74-2.32,16.57,16.57,0,0,0,7.51-6.12,15.31,15.31,0,0,0,.06-16.3,16.5,16.5,0,0,0-7.39-6q-5.07-2.32-12.92-2.32H431.51v33.09Z" transform="translate(-327.56 -415.14)" fill="#1d1d1b"/><path d="M502.16,753.84V684.68h3.58v69.16Z" transform="translate(-327.56 -415.14)" fill="#1d1d1b"/><path d="M534.45,753.84V684.68H538v66.39h46v2.77Z" transform="translate(-327.56 -415.14)" fill="#1d1d1b"/><path d="M590.44,753.84l31.69-69.16h4.77l31.93,69.16h-4.17l-26.57-58.79a19.16,19.16,0,0,1-1.55-4.34,18.82,18.82,0,0,1-.47-4.05H623a24.45,24.45,0,0,1-.6,4,23.65,23.65,0,0,1-1.55,4.44L594.5,753.84ZM601.88,731l2.15-2.77h41.46l2,2.77Z" transform="translate(-327.56 -415.14)" fill="#1d1d1b"/><path d="M687.3,753.84V687.45H655.85v-2.77h68.63v2.77h-33.6v66.39Z" transform="translate(-327.56 -415.14)" fill="#1d1d1b"/><path d="M740.68,753.84V684.68h54.56v2.77h-51V716.3h39.08v2.76H744.25v32h51v2.77Z" transform="translate(-327.56 -415.14)" fill="#1d1d1b"/><path d="M836.58,755a41.16,41.16,0,0,1-12.86-1.87,27.36,27.36,0,0,1-9.83-5.54,26.3,26.3,0,0,1-6.5-8.89l3.58-1.48a19.2,19.2,0,0,0,5.48,7.9,27,27,0,0,0,9,5.19,33.41,33.41,0,0,0,11.08,1.83q11.08,0,17.81-4.2t6.74-11.21a12.19,12.19,0,0,0-4.77-10q-4.77-3.81-13.46-6L830,717.58a44.42,44.42,0,0,1-9.59-3.41,19.62,19.62,0,0,1-6.85-5.48,12.61,12.61,0,0,1-2.62-8,13.75,13.75,0,0,1,3.39-9.34,20.79,20.79,0,0,1,9.18-5.88,39.18,39.18,0,0,1,12.69-2,36.46,36.46,0,0,1,13.94,2.37A26.22,26.22,0,0,1,859,691.4a21.49,21.49,0,0,1,4.41,6.12L860.17,699a23.38,23.38,0,0,0-4-5.54,22.7,22.7,0,0,0-7.74-5,30.89,30.89,0,0,0-12.21-2.18,34,34,0,0,0-11,1.68,17.72,17.72,0,0,0-7.81,4.94,11.21,11.21,0,0,0-2.86,7.61,10.57,10.57,0,0,0,4.53,8.84q4.53,3.4,14.3,5.88l11.55,2.86q9.54,2.38,14.78,6.92a15.54,15.54,0,0,1,1.84,21.34,21.55,21.55,0,0,1-9.77,6.42A45.2,45.2,0,0,1,836.58,755Z" transform="translate(-327.56 -415.14)" fill="#1d1d1b"/></svg>